<?xml version="1.0" encoding="UTF-8" standalone="no"?>
<!-- Created with Inkscape (http://www.inkscape.org/) -->

<svg
   width="24.000069mm"
   height="24.000006mm"
   viewBox="0 0 24.000069 24.000006"
   version="1.1"
   id="svg1"
   xml:space="preserve"
   inkscape:version="1.3 (0e150ed6c4, 2023-07-21)"
   sodipodi:docname="zgodovina-ikone.svg"
   xmlns:inkscape="http://www.inkscape.org/namespaces/inkscape"
   xmlns:sodipodi="http://sodipodi.sourceforge.net/DTD/sodipodi-0.dtd"
   xmlns="http://www.w3.org/2000/svg"
   xmlns:svg="http://www.w3.org/2000/svg"><sodipodi:namedview
     id="namedview1"
     pagecolor="#ffffff"
     bordercolor="#000000"
     borderopacity="0.25"
     inkscape:showpageshadow="2"
     inkscape:pageopacity="0.0"
     inkscape:pagecheckerboard="0"
     inkscape:deskcolor="#d1d1d1"
     inkscape:document-units="mm"
     inkscape:zoom="0.4894542"
     inkscape:cx="232.9125"
     inkscape:cy="775.35345"
     inkscape:window-width="1920"
     inkscape:window-height="991"
     inkscape:window-x="-9"
     inkscape:window-y="-9"
     inkscape:window-maximized="1"
     inkscape:current-layer="layer12" /><defs
     id="defs1" /><g
     inkscape:label="Plast 1"
     inkscape:groupmode="layer"
     id="layer1"
     transform="translate(-181.03162,-196.40112)"><g
       inkscape:groupmode="layer"
       id="layer5"
       inkscape:label="kvantna"><path
         d="m 191.97943,220.19561 c -1.11225,-0.4524 -2.00303,-1.59014 -2.68143,-3.42488 -0.23053,-0.62346 -0.44053,-1.13355 -0.46668,-1.13355 -0.0262,0 -0.42995,0.14446 -0.89735,0.32103 -1.40406,0.5304 -2.36003,0.70947 -3.78742,0.70947 -1.25108,0 -1.40272,-0.0308 -1.95379,-0.39596 -1.82513,-1.20966 -1.28867,-3.40277 1.66338,-6.80007 l 0.97685,-1.12419 -0.48898,-0.7863 c -0.42407,-0.68191 -0.544,-0.78081 -0.9034,-0.74498 -1.04425,0.10409 -2.22613,-0.64425 -2.38822,-1.51216 -0.0616,-0.32971 0.013,-0.686 0.2346,-1.12137 0.28547,-0.56078 0.30372,-0.72565 0.15055,-1.3602 -0.24711,-1.02369 -0.0593,-1.70166 0.6393,-2.30829 0.74421,-0.64619 1.74681,-0.85538 3.22683,-0.67325 1.07475,0.13226 2.61656,0.57198 3.2415,0.92447 0.29446,0.16608 0.36677,0.16829 0.42894,0.0131 0.83826,-2.09249 1.18431,-2.70428 1.94159,-3.43265 0.74206,-0.71373 1.2787,-0.9447 2.19492,-0.9447 1.55029,0 2.7876,1.10008 3.70832,3.29706 0.26908,0.64202 0.51029,1.18563 0.53601,1.20799 0.0257,0.0224 0.32252,-0.0515 0.6595,-0.16419 0.33699,-0.11267 0.90149,-0.26903 1.25446,-0.34747 0.50454,-0.11211 0.69851,-0.24601 0.90717,-0.62623 0.70632,-1.28705 2.8999,-1.384 3.75462,-0.16592 0.16976,0.24193 0.30892,0.59684 0.30924,0.78867 3.3e-4,0.19184 0.14291,0.59135 0.31684,0.8878 0.40109,0.68361 0.40063,1.37836 -0.001,2.37267 -0.3889,0.96147 -1.54522,2.64568 -2.57759,3.75437 -0.42297,0.45422 -0.72668,0.89996 -0.67491,0.99051 0.0517,0.0905 0.48185,0.56656 0.95575,1.05777 1.54838,1.60491 2.77266,3.77466 2.77266,4.91385 0,0.77598 -0.59491,1.69045 -1.34404,2.06597 -0.56516,0.2833 -0.78403,0.31059 -2.05561,0.25638 -1.24315,-0.053 -2.7734,-0.36832 -4.03215,-0.83084 -0.18026,-0.0663 -0.29893,0.0954 -0.49451,0.67364 -0.24536,0.72544 -0.24306,0.78456 0.0495,1.27205 0.42575,0.70941 0.30065,1.45579 -0.33687,2.00982 -0.4394,0.38186 -0.59718,0.4281 -1.55343,0.45534 -0.58539,0.0167 -1.42012,0.0652 -1.85496,0.10772 -0.58843,0.0576 -0.95404,0.0109 -1.42965,-0.1825 z m 1.54267,-0.64914 c 0.0476,-0.0414 0.0163,-0.31633 -0.0697,-0.61092 -0.29989,-1.02664 0.68921,-2.1022 1.95866,-2.12988 0.64553,-0.0141 0.66177,-0.0266 0.87925,-0.67462 0.12187,-0.36316 0.19944,-0.67501 0.17238,-0.69298 -0.027,-0.018 -0.81501,-0.37734 -1.75102,-0.79858 l -1.70183,-0.76588 -1.5397,0.69764 c -0.84683,0.3837 -1.5673,0.71689 -1.60104,0.74044 -0.22987,0.1604 0.88025,2.60347 1.50797,3.31859 0.64013,0.72926 1.79338,1.22182 2.14512,0.91619 z m 2.70139,-0.49989 c 0.27325,-0.31945 0.28987,-0.42332 0.12354,-0.77222 -0.37879,-0.79464 -1.57975,-0.85039 -1.91299,-0.0888 -0.21092,0.48205 -0.20341,0.52159 0.17925,0.94431 0.43658,0.48227 1.15838,0.44494 1.6102,-0.0833 z m -10.31104,-3.39716 c 0.64443,-0.1444 1.51774,-0.39253 1.94068,-0.55138 0.66347,-0.2492 0.75569,-0.33101 0.67201,-0.5962 -0.0533,-0.16904 -0.18243,-1.03333 -0.28686,-1.92063 l -0.18986,-1.61326 -1.25149,-0.98671 -1.25148,-0.98671 -0.30569,0.33287 c -1.78453,1.94315 -2.96475,3.79808 -3.08791,4.85321 -0.0682,0.58482 -0.0231,0.76532 0.27288,1.09016 0.64456,0.70744 1.57141,0.80807 3.48772,0.37865 z m 17.32351,-0.002 c 1.32171,-0.7003 0.96625,-2.32725 -1.06942,-4.89473 -0.42244,-0.5328 -0.97999,-1.14515 -1.23901,-1.36078 l -0.47095,-0.39206 -1.15606,0.89908 -1.15608,0.89908 -0.0467,0.99254 c -0.0256,0.5459 -0.14236,1.46471 -0.25935,2.0418 -0.11699,0.57708 -0.16528,1.08632 -0.10731,1.13164 0.2117,0.1655 1.55273,0.56896 2.47724,0.7453 1.40962,0.26887 2.44321,0.24775 3.02757,-0.0619 z m -6.39803,-1.59917 c 0.069,-0.22179 0.17306,-0.89255 0.23117,-1.49059 l 0.10569,-1.08732 -1.45138,0.88122 c -0.79825,0.48468 -1.45787,0.94307 -1.46581,1.01864 -0.0169,0.16029 2.08404,1.1831 2.30535,1.12234 0.0822,-0.0226 0.20598,-0.22251 0.27501,-0.44429 z m -5.94993,-0.15459 c 0.64906,-0.27888 1.12605,-0.54733 1.05997,-0.59657 -0.43261,-0.3224 -2.78333,-1.64312 -2.83878,-1.59494 -0.0704,0.0612 0.22712,2.22205 0.34788,2.5268 0.094,0.23712 0.10439,0.23469 1.43093,-0.33529 z m 3.86513,-2.01569 c 0.39135,-0.22647 1.1207,-0.68257 1.62077,-1.01355 l 0.9092,-0.60178 v -1.96288 -1.96288 l -2.07864,-1.20321 -2.07864,-1.20321 -2.07209,1.21902 -2.07211,1.21902 -0.0472,1.71465 c -0.0703,2.55545 -0.18143,2.35867 2.06545,3.65733 l 1.9348,1.11828 0.55344,-0.28451 c 0.30438,-0.15648 0.87364,-0.46981 1.26498,-0.69628 z m -6.83039,-4.05982 -0.048,-0.68358 -0.76404,0.62847 -0.76405,0.62846 0.76405,0.6754 0.76404,0.6754 0.048,-0.62029 c 0.0264,-0.34116 0.0264,-0.9279 0,-1.30386 z m 11.2249,-0.11051 c -0.36597,-0.32402 -0.72174,-0.58914 -0.7906,-0.58914 -0.0689,0 -0.1252,0.56961 -0.1252,1.26579 v 1.26579 l 0.7906,-0.67666 0.7906,-0.67665 z m -12.9212,-0.3943 c 0.21083,-0.19513 0.72132,-0.57881 1.13442,-0.85264 0.71648,-0.47493 0.75109,-0.52899 0.75109,-1.17335 0,-0.37151 0.1108,-1.32394 0.24624,-2.11649 0.13543,-0.79256 0.21348,-1.46948 0.17345,-1.50427 -0.04,-0.0348 -0.59556,-0.25253 -1.23451,-0.48387 -1.32017,-0.47798 -3.44611,-0.68266 -4.0712,-0.39197 -0.45319,0.21075 -0.96385,0.94429 -0.96164,1.38135 0.003,0.65485 0.34216,1.01306 1.01192,1.06975 0.756,0.064 1.29915,0.35805 1.60228,0.86743 0.30096,0.50571 0.29185,1.35885 -0.0187,1.74402 -0.2296,0.28484 -0.21866,0.36253 0.14937,1.06108 0.21842,0.41455 0.49538,0.75373 0.61549,0.75373 0.1201,0 0.39087,-0.15965 0.60171,-0.35477 z m 16.38907,-2.1796 c 1.03103,-1.45573 1.63824,-3.09905 1.14509,-3.09905 -0.09,0 -0.34367,0.10249 -0.56366,0.22774 -0.54777,0.31187 -1.73463,0.28183 -2.26014,-0.0573 -0.32307,-0.20844 -0.73783,-0.71422 -0.902,-1.09996 -0.0265,-0.0624 -2.19155,0.53744 -2.31994,0.64269 -0.0669,0.0548 -0.0163,0.68284 0.11247,1.3955 0.12876,0.71266 0.29025,1.64197 0.35886,2.06512 0.11906,0.73447 0.17461,0.80717 1.22468,1.60261 l 1.09995,0.83323 0.76307,-0.8469 c 0.41969,-0.4658 1.02342,-1.21449 1.34162,-1.66376 z m -18.87329,0.60079 c 0.48205,-0.32948 0.54775,-0.86542 0.16443,-1.34097 -0.36244,-0.44964 -1.25762,-0.36829 -1.70538,0.15499 -0.30305,0.35417 -0.31008,0.41298 -0.09,0.75371 0.20638,0.31952 0.81442,0.70872 1.11704,0.71502 0.0535,9.3e-4 0.28475,-0.12612 0.5139,-0.28275 z m 8.32113,-2.29933 c -0.001,-0.0874 -2.26614,-1.2631 -2.43292,-1.2631 -0.10161,0 -0.38139,1.27233 -0.50668,2.30411 l -0.10461,0.8614 1.52295,-0.9036 c 0.83762,-0.49698 1.52219,-0.94645 1.52126,-0.99881 z m 4.90575,0.1968 c -0.10748,-0.68959 -0.22561,-1.2978 -0.26253,-1.35158 -0.0694,-0.10112 -2.02694,0.76566 -2.40324,1.06415 -0.17306,0.13727 0.0623,0.32413 1.26498,1.00402 0.81269,0.45944 1.50429,0.76828 1.53689,0.68628 0.0326,-0.082 -0.0286,-0.71329 -0.1361,-1.40287 z m -3.03713,-1.09965 c 0.32762,-0.17971 1.03682,-0.52025 1.57599,-0.75676 l 0.98032,-0.43 -0.46463,-1.10624 c -0.58661,-1.3967 -1.22718,-2.30898 -1.89902,-2.70451 -0.99773,-0.58738 -2.02338,-0.32026 -2.82916,0.73683 -0.50502,0.66253 -1.4971,2.73399 -1.41262,2.94956 0.0615,0.15687 2.9888,1.6265 3.25266,1.63295 0.11044,0.003 0.46884,-0.14212 0.79646,-0.32183 z m 9.04358,-1.18465 c 0.47084,-0.40913 0.42167,-1.1446 -0.10043,-1.50143 -0.58305,-0.39852 -1.22436,-0.36808 -1.6275,0.0773 -0.42262,0.46686 -0.41663,0.98073 0.0161,1.38097 0.43774,0.40489 1.27136,0.42592 1.7118,0.0432 z"
         style="fill:#000000;stroke-width:1.00017"
         id="path1-8" /></g></g></svg>
