<?xml version="1.0" encoding="UTF-8" standalone="no"?>
<!-- Created with Inkscape (http://www.inkscape.org/) -->

<svg
   width="70.891846mm"
   height="48.590557mm"
   viewBox="0 0 70.891846 48.590557"
   version="1.1"
   id="svg1"
   xml:space="preserve"
   inkscape:version="1.3 (0e150ed6c4, 2023-07-21)"
   sodipodi:docname="simetrična-kriptografija.svg"
   xmlns:inkscape="http://www.inkscape.org/namespaces/inkscape"
   xmlns:sodipodi="http://sodipodi.sourceforge.net/DTD/sodipodi-0.dtd"
   xmlns="http://www.w3.org/2000/svg"
   xmlns:svg="http://www.w3.org/2000/svg"><sodipodi:namedview
     id="namedview1"
     pagecolor="#ffffff"
     bordercolor="#000000"
     borderopacity="0.25"
     inkscape:showpageshadow="2"
     inkscape:pageopacity="0.0"
     inkscape:pagecheckerboard="0"
     inkscape:deskcolor="#d1d1d1"
     inkscape:document-units="mm"
     showguides="false"
     inkscape:zoom="0.97890839"
     inkscape:cx="328.93783"
     inkscape:cy="189.49679"
     inkscape:window-width="1920"
     inkscape:window-height="991"
     inkscape:window-x="-9"
     inkscape:window-y="-9"
     inkscape:window-maximized="1"
     inkscape:current-layer="layer1" /><defs
     id="defs1" /><g
     inkscape:label="Plast 1"
     inkscape:groupmode="layer"
     id="layer1"
     transform="translate(-49.586217,-147.391)"><path
       id="path1-9"
       style="fill:#000117"
       d="m 102.49203,147.39101 c -0.9789,7.4e-4 -1.9689,0.0634 -2.592601,0.18759 -2.44079,0.48615 -4.65056,1.63585 -6.49056,3.37757 -2.09993,1.98775 -3.37346,4.23332 -4.10776,7.24193 -0.2517,1.03167 -0.26414,1.22825 -0.30644,4.82555 l -0.0424,3.58583 c 0.26655,-0.001 0.37567,-0.006 0.71572,-0.006 l 0.045,-3.56568 c 0.0422,-3.3388 0.0712,-3.86314 0.25735,-4.63537 1.14926,-4.76842 4.24403,-8.27239 8.58552,-9.72137 2.988031,-0.99726 6.737081,-0.71876 9.573061,0.71158 1.658,0.83621 3.55977,2.43611 4.68343,3.93981 0.66198,0.88584 1.54459,2.59614 1.90376,3.6897 0.5516,1.6795 0.59594,2.09322 0.64854,6.06681 l 0.0481,3.65146 0.71417,-0.003 -0.0434,-3.6742 c -0.0497,-4.16247 -0.0722,-4.35071 -0.75292,-6.40167 -0.68745,-2.07116 -1.77447,-3.77048 -3.46129,-5.41001 -1.9826,-1.92703 -4.183,-3.10783 -6.85178,-3.67678 -0.57874,-0.12317 -1.54653,-0.18419 -2.52543,-0.18345 z m 13.63483,19.34611 0.002,0.11575 -17.408241,-0.0506 h 12.679331 v -0.14108 c -1.51631,-0.0209 -3.80654,-0.0333 -7.53804,-0.0408 l -10.182321,-0.0636 v 0.23099 l -0.71676,-0.002 v -0.20877 l -0.59738,0.0672 -2.60862,-0.0419 c -0.0432,0 -0.0464,0.001 -0.0884,0.001 l -0.002,0.17259 -0.71571,-0.002 0.002,-0.16433 c -1.42264,0.007 -2.10179,0.0284 -2.34714,0.10128 -0.43697,0.12976 -0.98044,0.58391 -1.20768,1.00873 -0.15611,0.29181 -0.16152,0.37485 -0.18242,3.01945 -0.0167,2.11395 -9.5e-4,2.73142 0.0692,2.77502 0.0499,0.0308 0.11693,0.0399 0.14883,0.0202 0.0319,-0.0197 0.0579,-1.10865 0.0579,-2.42001 0,-1.31228 0.0332,-2.55945 0.0739,-2.77399 0.0923,-0.48653 0.34686,-0.87807 0.73949,-1.13791 l 0.30283,-0.20051 13.16043,-0.0362 c 9.336471,-0.0258 12.558951,-0.0187 13.707181,-0.0636 l 0.0765,0.0357 c 0.18268,0.0845 0.45077,0.27544 0.59531,0.42427 0.4882,0.50254 0.48989,0.52217 0.48989,4.52272 v 3.94808 1.38079 1.7446 1.41541 1.71308 4.75888 c 0,1.70772 1.2e-4,3.41548 0,5.1232 v 0.72554 0.7276 0.36226 l 0.0114,0.36431 -0.0496,0.23617 c -0.11819,0.5632 -0.57236,1.08354 -1.11724,1.30121 -0.15124,-0.10005 -1.5521,-0.0109 -13.45758,-0.0109 -9.199371,0 -13.033651,-0.0231 -13.260171,-0.0801 -0.38974,-0.0981 -0.85888,-0.48705 -1.07487,-0.8909 -0.15454,-0.28892 -0.16169,-0.3911 -0.18449,-2.53577 -0.0228,-2.14875 -0.0294,-2.235 -0.16381,-2.235 -0.13442,0 -0.1394,0.0771 -0.13901,2.19831 2e-4,1.29029 0.0314,2.31075 0.0755,2.46962 0.16908,0.6088 0.8652,1.22853 1.526,1.35806 v -5.2e-4 c 0.36028,0.0706 26.629681,-0.0381 26.811801,-0.108 0.023,-0.009 0.0238,-0.0404 0.0419,-0.0574 0.35001,0.0165 1.05711,0.0217 2.41691,0.0233 2.82302,0.003 2.93773,-0.002 3.25045,-0.14935 0.41814,-0.19656 0.78355,-0.60444 0.94361,-1.05368 0.0698,-0.19602 0.18992,-0.47759 0.21032,-0.62477 -0.009,-4.07035 9.8e-4,-8.17986 -0.0264,-12.19667 -0.0569,-2.82495 -0.047,-6.88843 -0.0878,-10.03401 -0.0204,-3.59987 -0.0234,-3.6714 -0.17777,-3.95686 -0.18604,-0.34414 -0.54384,-0.69525 -0.8971,-0.88057 -0.1995,-0.10464 -0.46178,-0.13941 -1.21698,-0.16071 l -0.96325,-0.0269 z m -23.164481,-0.1602 0.20774,-0.0233 0.50902,0.003 v -3.08767 c 0,-2.64554 0.0337,-3.49613 0.16278,-4.12275 0.78728,-3.82078 3.79285,-6.60664 7.650691,-7.09155 4.08667,-0.51368 8.19377,2.15068 9.47798,6.14846 0.37657,1.17231 0.42891,1.80222 0.42891,5.14025 v 3.11764 c 0.28271,0.004 0.5042,0.009 0.72967,0.0134 l -0.0367,-3.48351 c -0.0355,-3.33691 -0.056,-3.67291 -0.26458,-4.43022 -0.59035,-2.14326 -1.94568,-4.12565 -3.70624,-5.42137 -1.66331,-1.22414 -3.49333,-1.81333 -5.63324,-1.81333 -2.641971,0 -4.715451,0.84541 -6.565491,2.67684 -1.0924,1.0814 -1.84894,2.20926 -2.34611,3.49849 -0.52562,1.36286 -0.61444,2.20749 -0.61444,5.83582 z m 19.166791,0.0977 0.002,0.12712 h 3.28301 l -0.001,-0.0615 -0.5581,0.003 -0.81752,0.0207 -0.076,0.002 c -0.18672,-0.0414 -0.77383,-0.0694 -1.83193,-0.091 z m -52.476382,2.14199 c -1.218527,-0.0421 -2.163551,0.10716 -3.33313,0.48834 -0.691894,0.22549 -0.872955,0.3523 -0.72037,0.50488 0.04811,0.0481 0.325886,-0.0124 0.82734,-0.17984 1.143457,-0.38171 2.060788,-0.51127 3.290755,-0.46457 2.520181,0.0956 4.53918,0.98096 6.332947,2.77658 0.981954,0.98298 1.65795,1.9763 2.091862,3.0732 l 0.122473,0.30902 h 6.246647 c 4.260967,0 6.261677,-0.0243 6.293677,-0.076 0.0257,-0.0417 0.008,-0.12371 -0.0408,-0.18191 -0.0755,-0.0909 -0.8659,-0.10593 -5.627045,-0.10593 h -5.539197 l -0.299206,-0.59945 c -0.881578,-1.76892 -2.224169,-3.18468 -3.9672,-4.18372 -1.210298,-0.6937 -2.390195,-1.03431 -4.350639,-1.25626 -0.485507,-0.055 -0.921909,-0.0904 -1.328084,-0.10438 z m 26.026831,6.28902 -0.60306,5.2e-4 c -0.33165,0 -0.60145,0.0248 -0.59945,0.0548 0.002,0.03 1.00093,0.80449 2.22054,1.72134 1.2196,0.91686 2.22896,1.68593 2.24276,1.70843 0.0192,0.0313 -3.53376,2.76166 -4.24057,3.25871 -0.11812,0.0831 -0.23324,-0.0261 -1.13223,-1.0759 -1.02141,-1.19274 -1.19833,-1.32223 -1.27383,-0.93173 -0.038,0.19653 -1.38004,2.03068 -1.46554,2.00298 -0.0263,-0.009 -0.42036,-0.50573 -0.8754,-1.10536 -0.57111,-0.75256 -0.87115,-1.09037 -0.96945,-1.09037 -0.0964,0 -0.14269,0.0504 -0.14469,0.15606 -0.001,0.0858 -0.34148,0.60083 -0.75551,1.14464 l -0.75241,0.98857 h -1.436605 -1.436605 l -0.567407,-0.76326 c -0.31221,-0.41973 -0.618145,-0.76385 -0.679545,-0.76585 -0.06141,-0.002 -0.221454,-0.15167 -0.355534,-0.33383 -0.13407,-0.18222 -0.268073,-0.30355 -0.298173,-0.26975 -0.08851,0.0994 -1.569241,2.08796 -1.628841,2.18746 -0.0419,0.07 0.09273,0.0897 0.58601,0.0879 l 0.640271,-0.003 0.483175,-0.65525 0.483691,-0.65578 0.559656,0.73071 0.560173,0.73122 h 2.209164 2.20865 l 0.002,-0.1633 c 0.001,-0.0899 0.19446,-0.41948 0.42995,-0.73174 l 0.4284,-0.5674 0.55552,0.7338 0.55604,0.73381 0.74,-0.0207 c 0.64101,-0.0179 0.74082,-0.0374 0.74156,-0.1447 4.8e-4,-0.0682 0.20707,-0.40292 0.4594,-0.74362 l 0.45889,-0.6196 0.65474,0.76171 0.65474,0.76171 h 0.62219 0.62218 l 2.11615,-1.59732 c 1.16398,-0.87852 2.23089,-1.69705 2.3704,-1.81901 0.23489,-0.20535 0.24366,-0.22828 0.12247,-0.31058 -0.072,-0.0489 -1.11698,-0.8331 -2.32234,-1.74253 z m -30.438448,0.51005 c -1.330524,-0.006 -2.443597,0.55918 -2.932638,2.21588 -0.07488,0.25366 -0.147763,0.36828 -0.156063,0.54622 -0.01745,0.37446 -0.124486,0.63735 -0.01447,1.04593 0.310389,1.1527 1.365177,2.10303 2.536279,2.28565 2.536846,0.3956 4.44995,-2.26156 3.278353,-4.55321 -0.398378,-0.77924 -1.534273,-1.66336 -1.534273,-1.19424 0,0.0729 0.111882,0.18886 0.257349,0.26716 0.866148,0.46645 1.478727,1.82982 1.27124,2.82929 -0.240166,1.15686 -1.090413,2.04465 -2.195215,2.29288 -0.278104,0.0625 -0.35244,0.0468 -0.729154,-0.15399 -1.658829,-0.88415 -2.078869,-3.12303 -0.849561,-4.52686 0.295017,-0.3369 1.000902,-0.80825 1.313615,-0.87695 0.290277,-0.0638 0.135201,-0.17576 -0.245462,-0.17776 z m 45.290779,0.71468 c -0.47056,-3.5e-4 -0.940331,0.11746 -1.424721,0.35347 -2.20221,1.07296 -2.3691,4.11155 -0.30128,5.48597 l 0.48938,0.32504 v 1.75958 c 0,1.06647 0.0306,1.84021 0.0775,1.96423 0.10214,0.27034 0.41488,0.59843 0.685751,0.71933 v -5.2e-4 c 0.55057,0.24575 1.25279,-0.004 1.54048,-0.54828 0.16137,-0.30567 0.16743,-0.37763 0.16743,-2.1115 v -1.79524 l 0.42633,-0.26303 c 0.79471,-0.49052 1.31464,-1.27395 1.47794,-2.22622 0.22963,-1.3391 -0.47762,-2.70629 -1.711,-3.3073 -0.48603,-0.23662 -0.95727,-0.35518 -1.42782,-0.35553 z m -16.754021,0.0253 c -0.36336,-0.006 -0.83847,-0.002 -1.46503,0.003 -2.18163,0.0188 -2.23655,0.0231 -2.23655,0.16485 0,0.1414 0.0606,0.14598 2.24534,0.18138 l 2.24534,0.0362 0.14779,0.19792 c 0.1244,0.16659 0.1341,0.22686 0.0631,0.38292 -0.0464,0.1019 -0.16879,0.21763 -0.27182,0.25683 -0.11785,0.0448 -2.92139,0.0708 -7.55974,0.0708 -7.323952,0 -7.372163,0.001 -7.372163,0.14573 7.3e-5,0.14414 0.05353,0.14521 7.553023,0.14521 h 7.55355 l 0.21549,-0.18139 c 0.26985,-0.22706 0.34857,-0.58939 0.2036,-0.93637 -0.14778,-0.35398 -0.23181,-0.45029 -1.32188,-0.46716 z m -34.053734,2.23914 c -0.122137,0 -0.137976,0.0573 -0.137976,0.4992 0,1.54623 0.665956,3.53385 1.707906,5.09736 0.466996,0.70076 1.807102,2.04034 2.507857,2.50734 1.168687,0.77884 2.596697,1.36358 3.888652,1.59215 1.521538,0.26919 4.364662,0.0296 5.972245,-0.50333 2.061352,-0.68333 3.806039,-2.01648 5.01158,-3.8287 0.287405,-0.43204 0.972034,-1.7234 0.972034,-1.83348 0,-0.0231 -0.28584,-0.0419 -0.63562,-0.0419 h -0.636137 l -0.24598,0.54725 c -0.31123,0.69222 -1.150638,1.86515 -1.315165,2.04432 -0.03962,0.0431 -0.379518,0.30228 -0.683679,0.6134 -1.629214,1.66649 -3.634243,2.54064 -5.969662,2.75797 -3.772595,0.35108 -7.528812,-1.76514 -9.228894,-5.19968 -0.616362,-1.24519 -0.884182,-2.22198 -1.021126,-3.72536 -0.0412,-0.45224 -0.06761,-0.52658 -0.186035,-0.52658 z"
       sodipodi:nodetypes="ssscccccsssssccccsscsccccccccccccccccssscsssccccccscccccssccccscsssssscccccccscccssccccccssssscccssssssccccccccccssccsccsccsccsscccsssssscssccccccsssscccccccccccccsssccccccsscccsssssscssssscssccsscccsccscsscsccsssssscscsssssssssscsssssss"
       inkscape:export-filename="simetrična-kriptografija.png"
       inkscape:export-xdpi="110.29715"
       inkscape:export-ydpi="110.29715" /></g></svg>
